<?xml version="1.0" standalone="no"?>
<!DOCTYPE svg PUBLIC "-//W3C//DTD SVG 20010904//EN"
 "http://www.w3.org/TR/2001/REC-SVG-20010904/DTD/svg10.dtd">
<svg version="1.0" xmlns="http://www.w3.org/2000/svg"
 width="998.000000pt" height="1024.000000pt" viewBox="0 0 998.000000 1024.000000"
 preserveAspectRatio="xMidYMid meet">

<g transform="translate(0.000000,1024.000000) scale(0.100000,-0.100000)"
fill="#000000" stroke="none">
<path d="M4595 9839 c-335 -33 -535 -66 -794 -130 -391 -97 -820 -268 -1161
-462 -19 -11 -45 -26 -58 -32 -81 -44 -328 -209 -465 -311 -422 -316 -789
-698 -1088 -1134 -359 -521 -595 -1073 -738 -1725 -21 -91 -60 -342 -78 -492
-25 -216 -25 -785 0 -1008 114 -990 475 -1841 1101 -2593 262 -315 680 -692
990 -892 41 -27 66 -50 70 -66 5 -19 13 -24 37 -24 20 0 58 -17 103 -44 39
-25 83 -49 97 -55 24 -8 28 -7 33 12 14 54 0 127 -24 127 -22 0 -300 183 -455
299 -733 549 -1291 1300 -1603 2156 -172 471 -259 950 -269 1485 -8 421 15
673 102 1105 26 127 77 312 131 473 230 690 610 1299 1139 1827 370 370 764
651 1240 885 416 205 799 330 1265 414 540 98 1204 87 1755 -29 1029 -216
1964 -776 2636 -1577 564 -673 918 -1461 1044 -2323 43 -289 58 -752 35 -1042
-79 -988 -463 -1911 -1108 -2668 -47 -55 -162 -177 -256 -270 -302 -301 -586
-519 -963 -740 -83 -49 -102 -65 -107 -89 -10 -45 -7 -106 4 -106 16 0 59 23
208 112 635 377 1213 945 1607 1579 32 52 65 105 74 119 43 68 190 355 238
465 210 479 334 950 393 1490 18 165 24 635 11 812 -94 1219 -597 2295 -1466
3134 -443 429 -968 767 -1550 999 -191 76 -426 153 -590 191 -22 6 -56 14 -75
18 -110 27 -382 73 -570 97 -147 18 -755 28 -895 13z"/>
<path d="M5146 9521 c-3 -5 -11 -45 -16 -88 -28 -222 -50 -411 -50 -424 0 -19
147 -42 277 -43 84 -1 93 1 118 24 74 69 75 176 2 229 -19 13 -18 15 11 38 88
68 50 202 -66 232 -20 6 -77 15 -127 21 -49 6 -102 13 -117 16 -14 3 -29 1
-32 -5z m249 -124 c39 -20 47 -58 18 -89 -17 -19 -63 -23 -146 -12 l-46 7 5
46 c9 76 6 74 82 66 37 -4 76 -12 87 -18z m-85 -198 c41 -7 78 -20 90 -31 26
-25 26 -72 -1 -99 -18 -18 -28 -20 -78 -14 -119 13 -121 14 -121 49 0 59 12
106 27 106 8 0 45 -5 83 -11z"/>
<path d="M4587 9513 c-4 -3 -7 -24 -7 -45 0 -29 4 -38 18 -39 9 0 44 -1 77 -2
l60 -2 6 -220 c3 -121 7 -221 8 -223 0 -2 22 -2 49 0 l47 3 3 223 2 222 59 0
c75 0 91 6 91 35 0 56 4 55 -209 55 -109 0 -201 -3 -204 -7z"/>
<path d="M4240 9481 c-148 -45 -211 -180 -165 -355 42 -160 171 -231 319 -175
65 24 98 59 121 130 20 59 14 69 -42 69 -18 0 -36 0 -40 1 -5 0 -14 -19 -22
-43 -24 -78 -98 -108 -160 -66 -48 32 -69 72 -80 152 -12 84 -7 115 28 156 22
27 36 33 78 37 48 5 55 3 83 -26 36 -36 47 -37 89 -13 38 21 38 32 4 73 -48
57 -138 82 -213 60z"/>
<path d="M5697 9373 c-60 -256 -88 -388 -90 -419 l-2 -36 100 -24 c55 -13 138
-33 184 -44 47 -11 88 -17 92 -13 4 5 9 24 13 44 l7 37 -118 27 c-175 41 -163
32 -148 105 7 34 15 64 19 67 3 3 55 -6 116 -21 61 -14 117 -26 124 -26 13 0
34 76 24 84 -3 3 -163 41 -215 52 -26 5 -29 27 -12 87 8 29 14 37 27 33 83
-25 235 -57 247 -52 10 3 15 19 15 45 0 34 -4 41 -22 46 -13 2 -89 20 -170 40
-81 19 -154 35 -162 35 -9 0 -19 -24 -29 -67z"/>
<path d="M3760 9364 c-117 -31 -220 -65 -220 -72 0 -8 86 -316 121 -435 l20
-68 32 6 c79 16 75 3 40 130 -22 79 -20 95 8 95 40 0 134 41 166 72 43 42 58
94 42 150 -29 109 -101 151 -209 122z m84 -113 c18 -20 24 -70 11 -91 -9 -15
-109 -60 -134 -60 -15 0 -22 14 -35 66 -9 36 -14 69 -11 74 9 14 63 28 111 29
28 1 46 -5 58 -18z"/>
<path d="M6240 9268 c-21 -49 -170 -457 -170 -465 0 -8 71 -43 88 -43 4 0 25
47 46 105 21 58 42 105 45 105 11 0 166 -63 175 -71 6 -5 -6 -49 -29 -109 -43
-115 -40 -128 29 -133 l38 -2 29 80 c17 44 43 116 59 160 15 44 42 117 59 163
l31 83 -28 10 c-65 25 -72 21 -107 -71 -29 -74 -37 -85 -57 -84 -21 2 -157 50
-166 59 -3 2 10 43 27 90 17 47 31 92 31 100 0 13 -58 45 -81 45 -5 0 -14 -10
-19 -22z"/>
<path d="M3162 9139 c-35 -17 -41 -24 -37 -42 3 -12 7 -115 8 -229 2 -114 6
-210 10 -214 4 -4 7 -29 7 -56 0 -47 1 -49 23 -42 12 3 35 13 51 21 28 14 28
16 21 77 l-6 63 90 41 c49 23 94 42 99 42 5 0 27 -18 48 -40 22 -22 43 -40 48
-40 19 0 85 35 86 45 0 16 -377 395 -392 394 -7 0 -32 -9 -56 -20z m138 -194
c35 -35 62 -66 59 -69 -18 -16 -113 -56 -119 -49 -10 10 -20 183 -11 183 4 0
35 -29 71 -65z"/>
<path d="M6814 9042 c-6 -4 -48 -74 -94 -157 -45 -82 -95 -170 -109 -195 -56
-94 -56 -97 -10 -126 27 -17 45 -22 51 -16 5 5 31 47 57 93 32 58 52 84 64 83
23 -2 157 -84 157 -96 0 -5 -22 -50 -50 -100 -27 -50 -50 -93 -50 -97 0 -10
60 -41 80 -41 13 0 43 45 105 158 125 224 155 279 155 291 0 9 -69 51 -84 51
-2 0 -26 -38 -52 -85 -26 -47 -51 -85 -55 -85 -9 0 -158 90 -163 99 -3 4 15
42 40 85 24 43 44 84 44 92 0 17 -72 55 -86 46z"/>
<path d="M2675 8869 c-77 -50 -144 -94 -149 -99 -4 -4 10 -39 32 -77 63 -109
109 -205 127 -267 15 -53 15 -59 1 -75 -9 -10 -16 -21 -16 -26 0 -5 21 -41 46
-82 48 -78 63 -85 103 -54 l24 19 -28 47 -28 48 23 17 c35 26 252 161 254 158
23 -40 58 -88 64 -88 12 0 52 44 52 58 0 6 -19 43 -42 82 -37 61 -46 70 -66
65 -25 -6 -24 -8 -163 224 -46 78 -86 141 -89 141 -3 0 -68 -41 -145 -91z
m197 -194 l87 -145 -32 -23 c-97 -73 -137 -91 -137 -64 -1 22 -66 172 -104
236 -20 35 -36 65 -34 66 29 22 115 75 123 75 5 -1 49 -66 97 -145z"/>
<path d="M7279 8673 c-24 -32 -62 -81 -84 -109 -22 -28 -50 -64 -62 -80 -93
-124 -122 -167 -118 -175 6 -9 187 -155 232 -187 37 -26 100 -29 143 -7 63 32
103 122 86 190 -8 32 -71 101 -137 152 -27 20 -49 40 -49 43 0 3 27 42 60 85
33 43 60 81 59 84 0 8 -54 50 -71 56 -10 4 -30 -14 -59 -52z m44 -325 c51 -48
59 -77 31 -116 -24 -35 -64 -28 -133 24 -33 25 -63 50 -66 55 -3 5 11 33 32
63 l38 54 25 -18 c14 -10 46 -38 73 -62z"/>
<path d="M4685 8700 c-602 -38 -1183 -243 -1695 -595 -93 -64 -109 -77 -250
-192 -482 -393 -885 -979 -1097 -1598 -264 -770 -267 -1609 -8 -2381 56 -166
127 -337 198 -479 33 -66 41 -77 48 -60 4 11 8 712 8 1557 1 1529 1 1537 -19
1548 -17 9 -20 21 -20 85 l0 75 655 0 c645 0 655 0 655 -20 0 -19 16 -19 1724
-20 948 0 1731 3 1740 6 9 3 16 12 16 20 0 12 102 14 655 14 l655 0 0 -75 c0
-77 -2 -80 -42 -76 -17 2 -18 -79 -18 -1573 0 -1552 0 -1575 -20 -1586 -13 -7
-193 -9 -542 -8 l-523 3 -3 43 -3 42 495 0 496 0 0 550 0 550 -595 0 -595 0 0
-585 0 -585 -22 0 c-13 0 -34 -1 -48 -2 l-25 -3 -3 598 -2 597 -1608 -2 -1607
-3 -3 -598 -2 -598 -23 3 -22 3 -3 618 -2 617 -625 0 c-549 0 -625 -2 -625
-15 0 -13 75 -15 616 -15 583 0 616 -1 608 -17 -5 -10 -10 -281 -12 -602 -1
-322 -4 -587 -6 -589 -3 -2 -9 -1 -15 3 -7 4 -11 85 -11 238 l0 232 -118 -3
-119 -3 -6 68 c-9 87 -9 241 -1 282 l7 31 105 0 c88 0 107 -3 118 -17 11 -15
13 11 14 165 l0 182 -590 0 -590 0 2 -557 3 -558 513 -3 513 -2 -3 -43 -3 -42
-535 -3 c-492 -2 -536 -1 -547 15 -7 9 -16 14 -19 10 -14 -13 135 -259 259
-426 140 -190 360 -425 546 -585 104 -89 341 -262 434 -317 31 -18 57 -37 57
-41 0 -5 -122 -8 -271 -8 -156 0 -269 -4 -267 -9 2 -5 30 -39 63 -76 203 -228
294 -433 282 -635 -11 -195 -107 -373 -292 -540 -33 -30 -61 -59 -63 -66 -5
-18 96 -93 182 -135 l80 -39 460 0 c281 0 467 4 476 10 13 9 13 10 -1 10 -9 0
-26 23 -42 58 -108 236 -247 546 -247 552 0 17 200 20 1418 19 1392 0 1311 3
1284 -52 -9 -16 -201 -470 -239 -564 -3 -7 -13 -13 -22 -13 -14 0 -14 -2 -1
-10 9 -6 210 -10 515 -10 l501 0 49 46 c28 25 69 61 93 81 39 33 55 63 33 63
-5 0 -49 39 -98 87 -172 171 -253 339 -253 528 0 212 106 424 324 650 l39 40
-309 5 -309 5 78 50 c124 79 266 182 342 245 176 147 217 184 315 286 106 110
205 224 296 344 49 64 224 324 224 333 0 3 18 34 39 69 183 301 355 791 425
1208 47 281 60 676 31 960 -47 460 -172 895 -370 1290 -276 549 -694 1032
-1172 1352 -188 125 -226 148 -395 233 -372 189 -748 301 -1153 344 -139 15
-417 20 -560 11z m233 -924 c64 -36 324 -179 577 -316 33 -18 74 -41 90 -50
26 -15 81 -45 343 -187 l43 -23 572 0 573 0 89 -54 c50 -29 182 -111 295 -181
113 -70 250 -155 305 -188 139 -83 142 -87 75 -87 -50 0 -64 6 -160 66 -58 36
-143 90 -190 118 -47 29 -134 83 -195 121 -60 37 -132 81 -158 96 l-48 29
-497 0 c-424 0 -494 -2 -482 -14 8 -8 71 -44 140 -81 158 -86 218 -118 414
-226 186 -102 186 -103 -26 -97 l-133 4 -140 76 c-77 42 -183 100 -235 128
-100 55 -238 131 -417 228 -60 33 -229 125 -378 207 -148 81 -295 161 -325
178 -30 16 -83 45 -117 63 -33 19 -65 34 -70 34 -5 0 -56 -26 -113 -58 -58
-32 -139 -77 -180 -99 -41 -22 -158 -87 -260 -143 -102 -57 -207 -114 -235
-128 -27 -13 -61 -32 -75 -42 -14 -10 -68 -40 -120 -67 -52 -27 -147 -78 -210
-113 -175 -96 -306 -167 -400 -219 l-85 -46 -167 -3 c-201 -5 -224 2 -141 45
32 17 130 70 218 118 216 119 332 181 383 207 89 46 74 48 -384 48 l-426 0
-60 -40 c-33 -22 -62 -40 -64 -40 -2 0 -63 -37 -136 -83 -73 -46 -191 -119
-263 -162 -71 -43 -137 -84 -146 -92 -11 -9 -35 -13 -74 -11 l-58 3 99 61 c54
33 127 78 162 100 34 21 92 57 128 79 35 22 142 88 237 147 l173 107 519 3
520 3 425 235 c418 230 702 387 708 389 1 0 37 -19 80 -43z m102 -761 c77 -17
130 -41 130 -59 0 -9 7 -12 18 -9 22 5 110 -79 119 -115 3 -14 12 -37 19 -51
8 -14 14 -41 14 -58 l0 -33 -73 0 c-43 0 -78 5 -85 12 -9 9 -12 9 -12 0 0 -9
-33 -12 -118 -12 -78 0 -122 4 -130 12 -9 9 -12 9 -12 0 0 -9 -52 -12 -205
-12 l-205 0 0 44 c0 26 6 51 15 59 8 8 11 17 8 20 -18 19 115 156 138 141 5
-3 9 -1 9 4 0 13 65 43 125 57 66 16 177 16 245 0z m65 -2576 c66 -24 123 -73
146 -123 17 -38 19 -75 19 -489 l0 -447 -307 2 -308 3 0 450 c0 407 2 453 17
481 70 128 267 184 433 123z m-1315 -144 c57 -29 60 -43 60 -238 0 -104 -4
-186 -10 -198 -10 -17 -22 -19 -114 -19 l-103 0 -7 31 c-11 54 -7 349 5 372
31 62 106 85 169 52z m589 -2 c20 -12 35 -30 41 -53 11 -39 12 -277 2 -355
l-7 -50 -105 0 -105 0 -7 45 c-3 25 -7 114 -7 198 -1 165 7 198 53 221 33 16
102 13 135 -6z m1291 -4 c21 -12 41 -31 44 -43 8 -28 8 -370 0 -390 -5 -13
-25 -16 -114 -16 l-107 0 -7 61 c-10 99 -6 301 7 339 8 24 23 41 47 52 46 24
84 23 130 -3z m590 -8 l35 -29 3 -175 c2 -96 -1 -190 -6 -208 l-8 -34 -99 0
c-131 0 -126 -8 -123 233 l3 184 33 29 c46 41 113 41 162 0z m1464 -111 c8
-47 7 -232 0 -297 l-7 -53 -108 0 -109 0 0 189 c0 120 4 191 10 193 6 2 55 3
109 3 l99 0 6 -35z m-5340 -1 c8 -41 8 -243 0 -303 l-7 -46 -108 0 -109 0 0
183 c0 101 3 187 7 190 3 4 52 7 108 7 l103 0 6 -31z m390 0 c8 -40 8 -297 0
-326 -6 -22 -11 -23 -110 -23 -71 0 -105 4 -111 13 -10 16 -17 286 -9 332 l7
35 108 0 109 0 6 -31z m4170 -15 c8 -60 8 -213 0 -281 l-7 -53 -108 0 -109 0
0 190 0 190 109 0 108 0 7 -46z m390 15 c3 -17 6 -89 6 -159 0 -70 -3 -142 -6
-159 l-6 -31 -109 0 -109 0 0 190 0 190 109 0 109 0 6 -31z m-690 -875 c24 -9
22 -84 -1 -84 -17 0 -3414 0 -3440 0 -14 0 -19 71 -6 83 8 9 3426 9 3447 1z
m-402 -1266 l3 -213 28 -3 27 -3 0 -330 0 -329 -895 0 c-492 0 -895 4 -895 8
0 5 19 19 43 32 62 35 206 185 250 260 97 168 111 364 36 512 -35 69 -98 121
-160 133 -157 29 -291 -189 -234 -381 36 -121 150 -187 236 -137 33 20 51 50
19 33 -51 -27 -117 1 -148 64 -60 120 -45 294 30 362 35 33 63 37 104 18 48
-23 81 -78 106 -177 36 -144 11 -286 -79 -447 -53 -93 -165 -215 -226 -243
-20 -10 -39 -22 -42 -27 -10 -16 -885 -13 -885 3 -2 57 1 417 6 715 l7 362
1333 0 1334 0 2 -212z m-2879 -114 c65 -6 77 -10 77 -25 0 -10 5 -21 10 -24 6
-4 10 -137 10 -366 l0 -361 105 -231 c58 -128 105 -235 105 -240 0 -12 -878
-9 -885 4 -4 5 33 51 82 102 179 186 246 330 245 521 -2 183 -74 339 -251 544
l-71 82 248 0 c137 0 283 -3 325 -6z m3727 3 c0 -2 -21 -25 -46 -53 -125 -133
-235 -318 -265 -444 -19 -78 -16 -222 5 -295 36 -122 145 -287 260 -393 82
-75 100 -72 -389 -72 -258 0 -435 4 -435 9 0 9 82 190 171 379 l39 84 0 376 0
377 33 17 c28 14 71 17 330 17 163 1 297 0 297 -2z"/>
<path d="M4825 4356 c-16 -8 -46 -27 -65 -44 l-35 -30 0 -403 0 -404 214 -3
c165 -2 217 1 223 10 5 7 8 183 7 390 -3 423 -2 420 -72 467 -36 23 -51 26
-141 29 -70 1 -110 -2 -131 -12z"/>
<path d="M5609 2087 c-60 -23 -96 -54 -123 -109 -54 -109 -22 -221 83 -289
l25 -16 -57 -37 c-75 -50 -97 -87 -97 -165 0 -76 23 -125 81 -175 46 -39 97
-52 180 -44 66 7 126 49 161 113 68 125 34 267 -78 326 -24 13 -44 26 -44 29
1 3 24 21 53 40 86 58 109 142 65 230 -44 86 -159 130 -249 97z m121 -36 c19
-10 45 -36 58 -57 19 -33 22 -49 18 -101 -5 -71 -26 -113 -66 -137 -36 -21
-62 -20 -108 3 -89 46 -125 136 -88 224 32 78 112 108 186 68z m0 -431 c61
-36 90 -88 90 -164 0 -46 -6 -69 -25 -103 -32 -54 -69 -73 -141 -73 -52 0 -59
3 -90 35 -82 87 -64 249 35 319 41 30 63 27 131 -14z"/>
<path d="M5120 2052 c-36 -21 -80 -45 -97 -53 -19 -8 -33 -21 -33 -31 0 -24 6
-23 69 12 29 16 57 27 62 24 5 -3 9 -155 9 -338 0 -255 -3 -336 -12 -344 -7
-5 -35 -13 -61 -17 -29 -5 -46 -12 -44 -19 5 -15 286 -21 301 -6 13 13 2 23
-31 24 -16 1 -37 7 -48 13 -19 11 -20 24 -23 392 -2 291 -6 381 -15 381 -7 0
-41 -17 -77 -38z"/>
<path d="M4058 2032 c-98 -53 -102 -57 -93 -71 4 -7 28 0 67 20 48 24 63 28
69 17 5 -7 8 -158 7 -335 -3 -362 -1 -354 -77 -358 -46 -2 -60 -10 -45 -25 15
-15 296 -9 301 7 3 7 -13 14 -42 19 -37 5 -48 12 -56 31 -5 13 -9 186 -9 384
0 335 -1 359 -17 359 -10 0 -57 -22 -105 -48z"/>
<path d="M2366 8657 c-20 -19 -34 -41 -31 -48 12 -33 75 -245 75 -252 0 -5
-35 11 -77 34 -43 23 -97 53 -121 66 -55 30 -60 29 -105 -8 -32 -26 -36 -34
-25 -44 7 -7 74 -41 148 -76 221 -104 215 -100 218 -142 3 -31 -2 -42 -29 -67
l-33 -30 24 -25 c29 -31 35 -31 77 -2 35 24 53 61 53 111 -1 47 -114 509 -127
513 -6 2 -27 -12 -47 -30z"/>
<path d="M7693 8388 c-32 -36 -274 -359 -280 -375 -6 -15 43 -73 63 -73 6 0
74 83 150 186 77 102 147 195 157 206 17 21 16 22 -15 49 -40 34 -49 35 -75 7z"/>
<path d="M1950 8261 c-147 -45 -221 -208 -156 -346 28 -60 106 -141 161 -166
57 -27 159 -25 205 2 106 64 150 163 120 271 -13 45 -31 52 -75 31 -38 -18
-41 -27 -24 -83 29 -98 -85 -177 -176 -122 -79 48 -135 127 -135 190 0 34 6
49 34 80 33 35 38 37 90 35 56 -2 56 -2 76 38 12 22 18 44 15 49 -6 10 -72 30
-95 29 -8 0 -26 -4 -40 -8z"/>
<path d="M8092 8188 c-5 -7 -13 -28 -17 -47 -9 -40 20 -108 49 -117 29 -10 98
-6 109 5 19 19 -1 41 -37 41 -44 0 -80 40 -73 83 4 32 -15 54 -31 35z"/>
<path d="M7745 8026 c-98 -90 -181 -168 -183 -174 -5 -15 37 -70 58 -77 14 -4
264 32 348 50 12 3 22 1 22 -3 0 -5 -49 -53 -110 -107 -60 -54 -110 -105 -110
-114 1 -21 35 -61 52 -61 8 0 39 21 69 48 115 98 319 285 319 292 0 4 -13 22
-29 41 -35 40 -35 40 -249 0 -84 -15 -155 -25 -157 -20 -3 4 47 54 110 111 63
56 115 107 115 111 0 17 -45 67 -59 66 -9 0 -97 -74 -196 -163z"/>
<path d="M1567 7786 c-100 -28 -187 -146 -187 -254 0 -39 35 -124 66 -161 44
-53 168 -121 221 -121 41 0 127 41 166 78 114 109 115 271 2 376 -83 77 -180
107 -268 82z m118 -105 c86 -41 135 -103 135 -174 0 -137 -127 -191 -246 -106
-67 48 -94 91 -94 148 0 55 27 103 72 131 41 25 81 25 133 1z"/>
<path d="M8377 7488 c-29 -46 -80 -125 -112 -176 -63 -100 -87 -116 -129 -88
-14 8 -27 25 -31 36 -5 16 -14 20 -32 18 -55 -6 -56 -64 -2 -117 28 -29 36
-31 102 -31 123 0 477 42 477 56 0 8 -8 29 -17 49 -20 42 -24 42 -182 15 -63
-11 -116 -18 -118 -16 -2 2 32 55 77 119 44 63 80 120 80 126 0 13 -47 91 -55
91 -3 0 -29 -37 -58 -82z"/>
<path d="M1232 7357 c-16 -18 -142 -280 -142 -293 0 -7 19 -23 43 -37 77 -45
395 -207 406 -207 15 0 54 81 44 90 -4 5 -87 50 -183 100 -96 51 -178 95 -182
99 -4 4 15 53 42 109 28 57 50 109 50 117 0 7 -14 18 -31 24 -39 13 -34 14
-47 -2z"/>
<path d="M8465 6966 c-214 -99 -220 -103 -218 -130 2 -29 28 -66 46 -66 5 0
42 16 83 35 41 19 81 35 91 37 12 2 26 -16 50 -65 57 -118 60 -110 -55 -164
l-100 -46 18 -46 c22 -56 26 -56 151 2 52 24 119 56 149 69 30 14 85 40 123
57 38 18 67 37 67 46 0 18 -31 85 -40 85 -7 0 -75 -31 -133 -60 -44 -23 -57
-25 -57 -9 0 6 -16 44 -35 85 -19 40 -35 79 -35 86 0 7 35 28 78 47 105 46
105 47 82 99 -10 23 -25 42 -32 41 -7 0 -112 -47 -233 -103z"/>
<path d="M1985 6492 c-3 -7 -5 -432 -5 -943 l0 -929 609 0 609 0 16 25 c14 22
16 103 16 798 0 440 -4 797 -9 828 -6 30 -11 79 -13 109 l-3 55 149 3 148 3
-5 -33 c-3 -18 -9 -63 -13 -100 -3 -38 -10 -68 -15 -68 -5 0 -9 -340 -9 -791
0 -672 2 -793 14 -805 8 -8 17 -14 20 -14 3 0 6 38 6 85 0 50 4 85 10 85 6 0
10 -5 10 -12 0 -9 3 -9 12 0 24 24 28 11 30 -85 l2 -98 3 90 c4 111 10 131 29
90 12 -26 13 -27 14 -7 0 26 17 30 23 5 3 -13 5 -11 6 6 1 23 2 24 21 6 11
-10 20 -13 20 -7 0 7 5 12 10 12 6 0 10 -42 10 -105 0 -63 4 -105 10 -105 6 0
10 42 10 105 0 103 4 117 28 93 9 -9 12 -9 12 0 0 7 5 12 10 12 6 0 10 -40 10
-100 0 -62 4 -100 10 -100 6 0 13 8 16 18 3 9 10 25 15 34 13 26 12 1591 -2
1605 -5 5 -13 51 -16 102 l-6 91 43 0 c61 0 39 15 -23 16 -29 1 -60 5 -70 9
-10 4 -23 2 -31 -4 -10 -8 -16 -9 -21 -1 -7 11 -45 14 -45 3 0 -10 -318 -7
-341 2 -10 3 -20 2 -23 -4 -5 -7 -13 -7 -26 1 -15 10 -22 10 -31 1 -9 -9 -16
-9 -30 0 -14 9 -21 9 -31 -1 -10 -10 -16 -8 -30 10 l-17 23 -565 1 c-477 0
-566 -2 -571 -14z m329 -424 c8 -68 8 -208 0 -275 l-7 -53 -107 0 -107 0 -7
53 c-3 28 -6 90 -6 137 0 47 3 109 6 138 l7 52 107 0 107 0 7 -52z m384 -141
l2 -188 -112 3 -113 3 -3 165 c-1 91 0 175 3 188 5 22 8 23 113 20 l107 -3 3
-188z m397 107 c4 -47 5 -127 2 -177 -4 -51 -7 -98 -7 -104 0 -10 -29 -13
-110 -13 -122 0 -113 -6 -112 75 0 17 1 92 1 168 l1 137 109 0 109 0 7 -86z
m669 45 c8 -40 8 -297 0 -326 -6 -22 -11 -23 -114 -23 -103 0 -108 1 -114 23
-8 29 -8 252 0 311 l7 46 107 0 108 0 6 -31z m-1095 -755 c68 -27 71 -39 71
-251 0 -103 -4 -194 -8 -201 -6 -9 -36 -12 -113 -10 l-104 3 -8 65 c-4 36 -5
127 -2 204 7 153 15 176 70 194 43 14 50 14 94 -4z m399 5 c56 -19 64 -55 60
-269 -1 -104 -7 -192 -11 -197 -11 -11 -203 -11 -214 0 -4 5 -8 100 -8 212 0
222 -1 218 60 249 35 19 70 20 113 5z m628 -9 c25 -13 46 -32 53 -48 8 -18 11
-93 9 -217 l-3 -190 -111 -3 -112 -3 -7 118 c-9 136 -2 277 15 315 9 18 24 28
54 36 58 14 56 14 102 -8z m-1416 0 c62 -17 70 -45 70 -227 0 -87 -3 -175 -6
-196 l-7 -38 -106 3 -106 3 -3 202 -2 203 25 22 c41 36 78 44 135 28z"/>
<path d="M6670 6494 c0 -6 -7 -17 -16 -25 -13 -10 -17 -10 -24 2 -8 12 -13 12
-31 1 -18 -12 -23 -12 -30 0 -7 11 -12 11 -30 0 -17 -11 -23 -11 -29 -2 -5 8
-16 9 -31 5 -33 -11 -99 -13 -99 -3 0 12 -38 10 -42 -3 -3 -8 -10 -8 -26 2
-19 12 -24 12 -32 0 -7 -12 -11 -12 -24 -2 -9 8 -23 10 -33 6 -26 -12 -86 -12
-100 -2 -8 6 -19 5 -28 -3 -12 -10 -18 -10 -30 0 -12 10 -18 10 -30 0 -12 -10
-18 -10 -30 0 -10 8 -19 9 -27 3 -15 -11 -69 -10 -86 1 -7 4 -18 4 -24 0 -7
-5 -139 -8 -294 -8 -156 -1 -286 -5 -291 -10 -5 -5 -1 -7 9 -3 9 3 23 0 31 -6
13 -11 13 -25 1 -117 -10 -80 -13 -292 -14 -892 0 -694 2 -788 15 -788 12 0
15 16 15 81 0 60 3 80 13 77 8 -3 13 -37 15 -112 4 -139 22 -131 22 10 0 86 3
104 15 104 12 0 15 -18 15 -104 0 -74 -4 -106 -12 -109 -7 -3 -2 -6 12 -6 l25
-1 0 107 c0 73 4 108 12 110 17 6 25 -50 21 -141 -2 -46 1 -76 7 -76 6 0 9 37
7 97 -2 93 7 137 25 119 4 -4 11 -56 14 -114 l5 -107 2 107 c1 66 6 109 13
114 14 8 28 -13 30 -46 1 -20 3 -18 8 9 3 19 12 36 19 39 11 3 13 -19 10 -107
-3 -109 -3 -111 20 -111 21 0 22 3 22 110 0 65 4 110 10 110 14 0 20 -33 23
-135 l3 -90 2 97 c2 106 7 128 28 128 11 0 14 -20 14 -92 0 -83 1 -90 15 -72
12 16 14 129 15 800 0 508 -3 783 -10 790 -6 6 -11 52 -13 104 l-2 93 140 1
140 1 -3 -65 c-2 -36 -8 -83 -13 -105 -12 -54 -12 -1452 0 -1459 5 -4 12 0 14
6 4 8 9 3 13 -11 l7 -23 13 23 c7 13 14 20 14 14 6 -49 20 -72 20 -32 0 14 5
29 10 32 6 4 10 -18 10 -59 0 -36 5 -68 10 -71 6 -4 10 20 10 64 0 41 4 71 10
71 6 0 10 -5 10 -11 0 -8 4 -8 14 0 11 9 16 9 21 0 6 -8 10 -7 16 2 8 12 11
11 19 -1 12 -17 11 -190 -1 -205 -5 -6 -1 -11 9 -11 15 0 17 13 17 106 0 119
17 148 26 43 l5 -68 2 67 c2 74 22 106 23 36 0 -24 3 -61 8 -83 14 -80 21 185
21 861 0 383 -4 674 -9 680 -5 5 -12 51 -16 102 l-7 92 147 0 148 0 -7 -87
c-4 -49 -12 -92 -17 -97 -15 -16 -12 -1566 4 -1599 l12 -27 603 0 602 0 0 943
0 943 -560 0 c-421 0 -560 -3 -560 -12z m204 -390 c3 -9 6 -87 6 -174 0 -87
-3 -165 -6 -174 -5 -13 -24 -16 -109 -16 -98 0 -103 1 -109 23 -8 29 -8 286 0
326 l7 31 102 0 c85 0 104 -3 109 -16z m396 -174 l0 -190 -114 0 -113 0 -7 66
c-4 37 -4 122 0 190 l7 124 113 0 114 0 0 -190z m384 174 c3 -9 6 -87 6 -174
0 -87 -3 -165 -6 -174 -5 -13 -25 -16 -115 -16 l-109 0 0 183 c0 101 3 187 7
190 3 4 52 7 109 7 84 0 103 -3 108 -16z m-2002 -55 c1 -34 2 -120 0 -191 l-4
-129 -111 3 -112 3 -3 175 c-1 96 0 180 2 187 4 10 35 13 115 13 l109 0 4 -61z
m632 24 c8 -50 8 -204 0 -282 l-7 -61 -107 0 c-89 0 -109 3 -114 16 -8 20 -8
312 0 342 6 21 11 22 114 22 l107 0 7 -37z m-687 -753 c48 -29 55 -68 51 -272
-1 -97 -6 -180 -10 -184 -4 -4 -53 -7 -109 -7 -76 0 -103 3 -110 14 -5 8 -8
102 -7 210 3 181 5 199 23 219 39 44 109 53 162 20z m620 8 c59 -22 67 -54 60
-271 -2 -103 -7 -190 -10 -193 -9 -9 -195 -12 -209 -3 -19 12 -19 395 0 431
23 43 95 59 159 36z m1015 0 c70 -21 78 -47 78 -249 0 -96 -3 -184 -6 -196 -6
-22 -11 -23 -114 -23 l-109 0 -6 53 c-4 30 -5 122 -3 204 3 166 8 180 73 209
37 16 39 17 87 2z m408 -6 c58 -28 61 -45 58 -259 -2 -105 -7 -195 -11 -200
-10 -9 -206 -8 -215 2 -10 10 -15 358 -5 395 11 42 62 80 107 80 17 0 47 -8
66 -18z m-786 -6 c61 -26 66 -41 66 -227 0 -92 -3 -181 -6 -198 l-6 -31 -109
0 -109 0 -1 68 c-6 266 -2 342 16 362 33 37 97 48 149 26z"/>
<path d="M8840 6480 c-30 -10 -93 -30 -140 -44 -47 -14 -124 -37 -171 -51
l-87 -27 13 -50 c8 -27 15 -51 17 -53 2 -2 81 -26 177 -54 168 -49 189 -57
180 -64 -2 -2 -64 -21 -138 -43 -74 -21 -140 -43 -147 -49 -22 -16 1 -85 27
-85 33 0 458 125 472 139 4 4 3 28 -3 53 -13 51 4 43 -247 114 -73 20 -133 40
-133 44 0 4 68 27 151 51 l150 44 -6 39 c-3 22 -8 43 -11 48 -8 12 -43 8 -104
-12z"/>
<path d="M4337 6473 c-3 -5 -102 -8 -221 -8 -119 0 -216 -3 -216 -7 0 -5 43
-8 96 -8 l95 0 -7 -82 c-4 -46 -11 -93 -15 -106 -5 -13 -9 -378 -9 -813 0
-737 1 -790 18 -809 16 -20 17 -18 22 72 6 103 22 123 31 38 l6 -55 1 52 c2
52 15 76 26 47 3 -9 7 -55 8 -102 l2 -87 5 98 c4 54 10 97 16 97 6 0 12 -43
16 -97 l5 -98 2 97 c2 91 12 128 26 92 3 -9 7 -59 8 -112 l2 -97 5 110 c4 63
10 110 16 110 6 0 12 -45 15 -105 l6 -105 4 105 c3 63 9 104 15 103 6 -2 12
-47 15 -100 l6 -98 4 98 c3 53 10 98 15 100 6 1 12 -41 16 -103 l5 -105 2 95
c2 103 12 136 30 104 10 -18 11 -18 17 -1 15 37 25 14 27 -60 l1 -78 8 90 c11
140 11 1469 -1 1555 -5 41 -12 97 -16 124 l-6 48 -34 -5 c-19 -3 -34 -2 -34 4
0 11 -27 12 -33 2z m37 -424 c8 -79 8 -179 0 -258 l-7 -62 -111 3 -111 3 -3
188 -3 187 114 0 114 0 7 -61z m-57 -721 c60 -25 63 -36 63 -229 0 -97 -3
-191 -6 -208 l-6 -31 -108 0 -108 0 -7 106 c-11 164 -2 299 22 332 30 40 96
53 150 30z"/>
<path d="M4926 6472 c-3 -4 -45 -7 -94 -6 l-90 3 -7 -95 c-5 -59 -13 -100 -21
-109 -12 -11 -14 -147 -14 -809 0 -519 3 -797 10 -801 6 -3 10 -19 10 -36 0
-19 5 -29 15 -29 12 0 15 18 15 105 0 63 4 105 10 105 6 0 10 -42 10 -105 0
-63 4 -105 10 -105 6 0 10 42 10 106 0 94 2 105 15 94 8 -7 15 -8 15 -3 0 5
29 9 65 9 l65 0 0 -103 c0 -62 4 -103 10 -103 6 0 10 41 10 103 l0 104 30 0
30 0 0 -91 0 -90 20 22 c20 21 20 31 17 819 -2 572 -7 823 -16 887 -7 48 -10
91 -7 93 3 3 28 8 56 11 68 6 54 20 -17 18 -32 -2 -64 2 -70 7 -9 6 -18 5 -28
-3 -12 -10 -19 -10 -27 -2 -14 14 -25 15 -32 4z m78 -393 c8 -40 8 -297 0
-326 -6 -22 -11 -23 -114 -23 l-107 0 -7 53 c-3 28 -6 90 -6 137 0 47 3 109 6
138 l7 52 107 0 108 0 6 -31z m-54 -756 c49 -33 49 -37 50 -254 l0 -207 -62
-4 c-35 -2 -87 -2 -115 0 l-53 4 0 203 c0 126 4 213 11 228 20 44 122 62 169
30z"/>
<path d="M842 6431 c-7 -21 -12 -44 -12 -51 0 -13 37 -57 204 -249 26 -29 45
-55 42 -58 -3 -3 -63 13 -133 35 -193 60 -180 59 -194 12 -8 -25 -9 -44 -3
-49 11 -11 453 -151 475 -151 14 0 39 56 39 88 0 11 -50 72 -191 234 -27 31
-49 61 -49 67 0 7 21 4 53 -8 94 -32 223 -71 239 -71 15 0 45 77 33 88 -3 3
-54 21 -113 40 -233 74 -360 112 -369 112 -5 0 -15 -17 -21 -39z"/>
<path d="M4508 6463 c7 -3 16 -2 19 1 4 3 -2 6 -13 5 -11 0 -14 -3 -6 -6z"/>
<path d="M4628 6463 c7 -3 16 -2 19 1 4 3 -2 6 -13 5 -11 0 -14 -3 -6 -6z"/>
<path d="M4688 6463 c7 -3 16 -2 19 1 4 3 -2 6 -13 5 -11 0 -14 -3 -6 -6z"/>
<path d="M5168 6458 c-8 -4 13 -8 46 -8 33 0 56 3 52 8 -10 10 -83 10 -98 0z"/>
<path d="M694 6395 c-4 -9 1 -24 10 -34 31 -34 8 -111 -33 -111 -17 0 -31 -18
-31 -41 0 -5 16 -9 36 -9 75 0 124 93 88 167 -21 41 -59 57 -70 28z"/>
<path d="M8989 5906 c-3 -4 -115 -21 -359 -55 l-45 -6 1 -77 c1 -42 9 -120 19
-173 20 -112 47 -154 115 -174 35 -10 46 -9 85 8 29 13 52 32 66 55 12 20 23
36 26 36 3 0 16 -9 30 -20 17 -13 41 -20 69 -20 36 0 51 6 80 33 31 28 37 42
41 83 5 46 -22 288 -33 306 -5 8 -87 11 -95 4z m24 -131 c4 -8 9 -47 13 -88 7
-81 -5 -107 -50 -107 -37 0 -54 22 -65 84 -16 86 -14 114 7 119 40 11 90 7 95
-8z m-199 -52 c3 -21 6 -65 6 -97 0 -68 -17 -96 -61 -96 -37 0 -65 37 -73 97
-4 27 -10 63 -13 80 -4 28 -2 34 18 42 13 5 45 10 70 10 46 1 46 1 53 -36z"/>
<path d="M696 5848 c-3 -13 -6 -37 -6 -55 0 -33 33 -65 248 -242 29 -24 51
-45 50 -47 -2 -2 -62 6 -133 16 -72 11 -146 20 -166 20 -36 0 -37 -1 -41 -42
-3 -24 0 -46 5 -49 16 -11 483 -72 501 -66 12 5 16 19 16 54 0 53 9 43 -183
205 -59 50 -106 93 -103 95 2 2 72 -6 156 -18 86 -12 155 -18 159 -13 12 13
21 83 11 89 -4 2 -39 9 -76 15 -166 24 -418 60 -424 60 -4 0 -10 -10 -14 -22z"/>
<path d="M634 5285 c-3 -8 -1 -37 6 -65 14 -57 37 -78 126 -114 63 -26 94 -49
94 -71 0 -11 -21 -15 -107 -17 l-108 -3 -3 -52 -3 -53 189 0 c104 0 223 3 265
6 l77 7 0 48 c0 56 12 52 -132 49 -92 -1 -98 0 -98 19 0 24 62 69 155 113 l65
30 0 59 c0 37 -4 59 -11 59 -6 0 -53 -22 -104 -50 -92 -50 -145 -90 -145 -110
0 -6 -15 0 -32 12 -18 13 -51 30 -73 37 -53 18 -73 37 -81 77 -6 31 -10 34
-40 34 -21 0 -37 -6 -40 -15z"/>
<path d="M8638 5294 c-3 -5 -5 -97 -4 -204 l1 -195 38 -3 c20 -2 38 -2 39 0 0
2 4 68 7 148 l6 145 65 0 65 0 3 -132 3 -133 44 0 45 0 0 130 0 129 34 6 c72
14 71 16 74 -148 l3 -148 42 3 42 3 8 189 c5 104 5 192 0 197 -11 11 -509 24
-515 13z"/>
<path d="M1007 4769 c-15 -55 -9 -77 23 -84 66 -15 104 -88 80 -159 -18 -57
-94 -96 -189 -96 -72 0 -113 16 -139 54 -34 50 -30 107 12 153 l33 38 -14 48
-14 48 -42 -24 c-102 -60 -118 -230 -33 -341 59 -78 200 -108 313 -67 64 23
85 38 123 85 84 107 62 249 -55 345 -9 7 -33 15 -54 18 -34 5 -39 2 -44 -18z"/>
<path d="M8627 4783 c-4 -3 -7 -25 -7 -49 0 -47 -4 -45 124 -60 l58 -7 -6 -96
c-7 -89 -5 -99 16 -140 69 -129 254 -115 292 22 18 64 41 250 34 269 -4 10
-50 19 -159 32 -85 10 -178 22 -208 27 -64 11 -135 12 -144 2z m412 -149 c3
-3 0 -34 -6 -70 -18 -105 -71 -141 -125 -86 -19 19 -21 32 -19 116 l1 59 73
-8 c39 -3 74 -9 76 -11z"/>
<path d="M3523 4705 c0 -38 2 -53 4 -32 2 20 2 52 0 70 -2 17 -4 1 -4 -38z"/>
<path d="M4413 4705 c0 -38 2 -53 4 -32 2 20 2 52 0 70 -2 17 -4 1 -4 -38z"/>
<path d="M3603 4695 c0 -33 2 -45 4 -27 2 18 2 45 0 60 -2 15 -4 0 -4 -33z"/>
<path d="M5583 4655 c0 -38 2 -53 4 -32 2 20 2 52 0 70 -2 17 -4 1 -4 -38z"/>
<path d="M3633 4655 c0 -27 2 -38 4 -22 2 15 2 37 0 50 -2 12 -4 0 -4 -28z"/>
<path d="M6121 4654 c0 -11 3 -14 6 -6 3 7 2 16 -1 19 -3 4 -6 -2 -5 -13z"/>
<path d="M6272 4640 c0 -14 2 -19 5 -12 2 6 2 18 0 25 -3 6 -5 1 -5 -13z"/>
<path d="M6040 4600 c0 -5 5 -10 10 -10 6 0 10 5 10 10 0 6 -4 10 -10 10 -5 0
-10 -4 -10 -10z"/>
<path d="M6115 4600 c3 -5 11 -10 16 -10 6 0 7 5 4 10 -3 6 -11 10 -16 10 -6
0 -7 -4 -4 -10z"/>
<path d="M6265 4600 c3 -5 11 -10 16 -10 6 0 7 5 4 10 -3 6 -11 10 -16 10 -6
0 -7 -4 -4 -10z"/>
<path d="M6560 4566 c0 -15 3 -16 14 -7 8 6 18 11 22 10 24 -4 1197 2 1192 6
-3 3 -280 6 -616 8 -592 2 -612 1 -612 -17z"/>
<path d="M8661 4270 c-55 -13 -112 -61 -139 -113 -51 -103 -37 -214 36 -278
l36 -32 28 32 c34 38 35 51 3 81 -54 51 -54 130 1 181 22 21 35 24 97 23 129
-1 210 -60 210 -151 0 -62 -29 -99 -95 -123 -25 -8 -28 -14 -28 -54 0 -25 4
-48 10 -51 16 -10 87 16 124 46 51 43 80 110 80 189 0 74 -21 125 -76 177 -61
58 -203 95 -287 73z"/>
<path d="M770 4175 c-26 -9 -34 -17 -32 -31 7 -41 95 -369 101 -376 4 -4 24
-3 44 3 28 8 37 15 33 27 -19 70 -27 125 -20 132 5 5 95 32 199 60 105 28 193
55 197 58 8 8 -7 81 -19 93 -5 5 -24 4 -43 -1 -64 -19 -295 -82 -329 -90 -19
-5 -38 -7 -41 -5 -4 2 -13 29 -20 60 -19 78 -27 86 -70 70z"/>
<path d="M8407 3755 c-9 -20 -17 -43 -17 -53 0 -9 45 -86 100 -171 56 -84 99
-155 96 -158 -4 -4 -183 73 -238 103 -14 8 -33 14 -41 14 -17 0 -40 -50 -35
-76 4 -24 446 -228 463 -214 7 5 18 27 25 49 14 44 22 29 -133 261 -38 56 -67
104 -65 105 4 4 256 -109 265 -119 16 -16 40 -3 51 27 14 39 15 67 3 67 -5 0
-55 22 -112 49 -274 129 -323 151 -334 151 -6 0 -19 -16 -28 -35z"/>
<path d="M877 3682 c-3 -4 3 -27 13 -52 l18 -45 142 -5 142 -5 -28 -30 c-15
-16 -61 -65 -102 -107 l-74 -76 23 -51 c14 -30 28 -48 34 -43 10 7 87 94 208
235 48 54 64 67 88 67 30 0 69 -30 69 -52 1 -30 15 -39 48 -27 35 12 39 29 21
76 -15 41 -48 72 -88 83 -20 5 -124 14 -231 20 -107 5 -214 12 -237 15 -23 2
-44 1 -46 -3z"/>
<path d="M1474 3348 c-59 -86 -85 -134 -93 -172 l-7 -30 -93 -3 c-90 -3 -96
-2 -121 22 -24 23 -30 25 -54 14 -31 -15 -32 -24 -6 -66 35 -58 59 -67 161
-60 86 7 129 -1 129 -22 0 -5 -21 -22 -47 -37 -27 -16 -60 -35 -74 -44 -67
-39 -63 -33 -40 -78 24 -47 37 -58 54 -44 7 5 28 19 47 30 255 145 376 215
379 218 3 3 -5 25 -17 50 -26 53 -29 53 -127 -7 -128 -78 -143 -52 -50 86 36
54 65 105 65 112 0 17 -36 90 -49 97 -4 3 -30 -26 -57 -66z"/>
<path d="M8120 3160 c-26 -51 -26 -53 13 -73 65 -33 324 -181 334 -190 3 -3
-12 -36 -33 -72 -30 -55 -34 -69 -23 -76 35 -24 51 -30 63 -26 8 3 47 70 89
149 41 79 83 157 93 175 18 31 18 31 -6 52 -41 34 -57 27 -90 -39 -17 -33 -36
-60 -42 -60 -7 0 -41 17 -77 39 -132 77 -283 161 -292 161 -5 0 -18 -18 -29
-40z"/>
<path d="M7865 2764 c-58 -80 -109 -152 -112 -161 -6 -16 31 -52 54 -53 11 0
148 176 160 206 3 8 11 14 17 14 18 0 106 -70 106 -84 0 -6 -34 -56 -74 -111
l-74 -100 31 -26 c18 -15 36 -25 40 -22 5 3 40 47 78 99 38 51 73 95 77 98 11
7 82 -52 82 -67 0 -7 -34 -57 -75 -112 -41 -55 -75 -104 -75 -110 1 -16 50
-47 65 -41 8 3 46 49 86 103 39 54 87 118 105 142 19 25 33 50 31 55 -3 11
-79 72 -227 183 -41 32 -77 60 -80 63 -14 16 -89 70 -98 70 -5 0 -58 -65 -117
-146z"/>
<path d="M1505 2808 c-91 -50 -128 -143 -89 -221 27 -52 146 -227 155 -227 10
0 97 62 314 221 34 24 71 51 84 59 27 18 24 38 -13 83 l-22 28 -79 -58 -78
-57 -16 24 c-41 63 -100 127 -131 142 -39 20 -95 23 -125 6z m95 -158 c0 -11
5 -20 11 -20 20 0 39 -28 39 -57 0 -21 -9 -36 -31 -52 -29 -22 -31 -22 -50 -5
-28 25 -71 118 -63 137 4 12 18 17 50 17 37 0 44 -3 44 -20z"/>
<path d="M2005 2523 c-160 -150 -315 -302 -315 -309 1 -18 60 -74 77 -74 10 1
96 18 191 39 95 21 174 35 176 32 1 -3 -48 -53 -110 -111 -62 -58 -113 -112
-113 -121 -1 -20 43 -73 58 -68 15 5 371 349 371 358 0 4 -15 23 -33 43 l-33
37 -165 -35 c-90 -19 -170 -36 -177 -39 -45 -17 -20 19 78 112 60 58 110 113
110 122 0 18 -39 61 -56 61 -5 0 -31 -21 -59 -47z"/>
<path d="M7557 2395 c-29 -36 -27 -51 6 -76 17 -13 267 -262 267 -266 0 -3
-18 -27 -40 -53 -22 -26 -40 -54 -40 -62 0 -8 11 -25 25 -38 22 -21 27 -22 40
-9 7 8 70 77 139 154 l125 140 -26 27 c-15 16 -30 28 -35 28 -5 0 -30 -23 -57
-52 l-49 -52 -119 111 c-65 61 -134 127 -152 147 -19 20 -40 36 -45 36 -6 0
-24 -16 -39 -35z"/>
<path d="M3814 987 c3 -12 12 -65 21 -117 8 -52 26 -158 40 -234 18 -106 21
-143 13 -154 -10 -11 -3 -13 38 -10 l49 3 3 238 2 237 944 0 943 0 6 -142 c4
-79 7 -187 7 -240 l0 -98 33 0 c30 0 32 2 32 38 0 20 24 135 53 254 29 119 52
224 52 232 0 14 -113 16 -1121 16 l-1121 0 6 -23z"/>
</g>
</svg>
